<?xml version="1.0" standalone="no"?>
<!DOCTYPE svg PUBLIC "-//W3C//DTD SVG 20010904//EN"
 "http://www.w3.org/TR/2001/REC-SVG-20010904/DTD/svg10.dtd">
<svg version="1.0" xmlns="http://www.w3.org/2000/svg"
 width="1200.000000pt" height="1200.000000pt" viewBox="0 0 1200.000000 1200.000000"
 preserveAspectRatio="xMidYMid meet">
<metadata>
Created by potrace 1.14, written by Peter Selinger 2001-2017
</metadata>
<g transform="translate(0.000000,1200.000000) scale(0.100000,-0.100000)"
fill="#000000" stroke="none">
<path d="M5939 11957 c-24 -13 -60 -32 -79 -43 -103 -61 -692 -400 -730 -422
-25 -14 -182 -105 -350 -202 -168 -97 -402 -232 -520 -300 -118 -68 -235 -135
-260 -150 -25 -15 -153 -90 -285 -166 -132 -76 -409 -235 -615 -354 -206 -119
-523 -303 -705 -407 -181 -105 -530 -307 -775 -448 -245 -142 -461 -266 -480
-277 -19 -11 -82 -47 -140 -80 -58 -33 -122 -72 -143 -85 l-37 -26 0 -3003 0
-3003 27 -19 c16 -10 132 -79 258 -152 127 -72 255 -147 285 -165 30 -18 76
-45 102 -59 26 -14 145 -83 265 -153 120 -69 238 -137 263 -151 51 -29 107
-61 135 -80 11 -6 26 -15 34 -19 8 -3 90 -51 183 -105 93 -54 174 -98 179 -98
5 0 9 -4 9 -10 0 -5 4 -10 10 -10 8 0 124 -66 735 -420 121 -70 472 -272 780
-450 308 -177 571 -330 585 -338 14 -9 39 -23 55 -32 17 -9 107 -61 200 -115
173 -100 619 -357 890 -514 121 -69 158 -86 191 -86 25 0 47 7 58 18 10 9 22
17 27 17 5 0 26 11 47 23 20 13 58 36 84 50 26 14 117 67 202 116 85 50 170
99 188 110 83 47 238 137 288 166 30 17 129 74 220 127 334 193 556 321 598
345 23 13 93 53 154 89 61 35 114 64 118 64 5 0 10 3 12 8 2 4 17 14 33 23 17
8 86 48 155 88 69 41 143 83 165 96 22 12 81 46 130 75 124 73 196 114 275
158 25 14 57 33 72 43 14 11 28 19 31 19 2 0 98 54 212 121 115 66 227 131
249 143 23 13 80 46 128 75 48 28 91 51 97 51 6 0 11 5 11 10 0 6 4 10 9 10 8
0 77 39 471 268 91 53 178 103 193 111 16 9 36 21 45 26 15 9 162 94 233 135
43 24 388 224 407 235 9 6 64 37 122 69 58 33 115 71 127 85 l23 26 0 2981 0
2982 -23 22 c-19 18 -302 190 -313 190 -2 0 -33 18 -69 40 -36 22 -67 40 -69
40 -2 0 -45 25 -97 55 -52 31 -101 60 -109 65 -8 4 -134 77 -280 161 -229 132
-427 247 -535 309 -16 9 -91 52 -165 95 -74 43 -144 83 -155 89 -19 10 -251
146 -285 166 -8 5 -58 34 -111 64 -53 29 -115 66 -137 80 -23 14 -44 26 -46
26 -2 0 -40 21 -83 46 -43 26 -94 56 -113 67 -31 17 -602 347 -755 435 -77 45
-117 68 -201 116 -38 22 -166 96 -284 164 -118 69 -233 135 -255 147 -22 13
-80 46 -130 75 -99 58 -94 55 -285 165 -74 43 -250 144 -392 226 -141 82 -269
151 -286 154 -19 3 -44 -3 -73 -18z"/>
</g>
</svg>
